<?xml version="1.0" encoding="utf-8"?>
<!-- Generator: Adobe Illustrator 22.1.0, SVG Export Plug-In . SVG Version: 6.00 Build 0)  -->
<svg version="1.1" id="Capa_1" xmlns="http://www.w3.org/2000/svg" xmlns:xlink="http://www.w3.org/1999/xlink" x="0px" y="0px"
	 viewBox="0 0 557.2 459" style="enable-background:new 0 0 557.2 459;" xml:space="preserve">
<style type="text/css">
	.st0{fill:none;stroke:#000000;stroke-width:48;stroke-miterlimit:10;}
</style>
<g>
	<path class="st0" d="M495.9,109.8c-22.4-26-52.8-46.5-91.2-61.6s-80.4-22.6-126-22.6c-34,0-66.4,4.4-97.4,13.3s-57.7,20.9-80,36
		c-22.4,15.2-40.2,33.2-53.5,54c-13.2,20.9-19.9,42.7-19.9,65.6c0,26.4,8.4,51.1,25.4,74.2c16.9,23,40,42.4,69.3,58.1
		c-2.1,7-4.5,13.8-7.2,20.1c-2.8,6.4-5.3,11.6-7.5,15.6c-2.3,4.1-5.3,8.5-9.1,13.5c-3.8,4.9-6.8,8.4-8.7,10.4c-2,2-5.2,5.4-9.7,10.1
		s-7.3,7.7-8.7,9.1c-0.2,0.1-1,0.9-2.3,2.4c-1.3,1.5-2,2.2-2,2.2l-1.7,2.4c-1,1.3-1.4,2.1-1.3,2.5s-0.1,1.2-0.6,2.7
		c-0.5,1.4-0.4,2.5,0.1,3.1v0.3c0.8,3.1,2.4,5.7,4.9,7.7c2.5,1.9,5.4,2.8,8.5,2.4c12.1-1.4,22.7-3.3,31.9-5.8
		c48.9-11.8,91.8-33.1,128.7-63.9c14,1.4,27.5,2.1,40.6,2.1c45.6,0,87.5-7.5,126-22.6c38.4-15.1,68.9-35.6,91.2-61.6
		c22.4-26,33.6-54.3,33.6-84.8C529.5,164.1,518.3,135.8,495.9,109.8z"/>
</g>
</svg>
