<?xml version="1.0" encoding="utf-8"?>
<!-- Generator: Adobe Illustrator 22.1.0, SVG Export Plug-In . SVG Version: 6.00 Build 0)  -->
<svg version="1.1" id="Layer_1" xmlns="http://www.w3.org/2000/svg" xmlns:xlink="http://www.w3.org/1999/xlink" x="0px" y="0px"
	 viewBox="0 0 278.7 67.5" style="enable-background:new 0 0 278.7 67.5;" xml:space="preserve">
<style type="text/css">
	.st0{fill:#FFFFFF;}
</style>
<g>
	<g>
		<path class="st0" d="M-2.3,67.5c0-22.5,0-45,0-67.5c93.7,0,187.3,0,281,0c0,22.5,0,45,0,67.5C185.1,67.5,91.4,67.5-2.3,67.5z
			 M219.8,45.9c-8.5-11.7-16.7-22.8-25.3-34.7c0,18.1,0,35,0,52c2.8,0,5.2,0,8.3,0c0-8.7,0-17.1,0-25.5c0.3-0.1,0.6-0.1,1-0.2
			c5.2,7.3,10.5,14.5,16,22.1c5.4-7.8,10.4-15,15.4-22.2c0.3,0.1,0.7,0.3,1,0.4c0,8.4,0,16.7,0,25.3c3.2,0,5.9,0,8.7,0
			c0-17.2,0-34,0-52.3C236.1,23.2,228.1,34.4,219.8,45.9z M0,11c0,18,0,35.1,0,52.2c2.9,0,5.3,0,8.2,0c0-10.7,0-21.2,0-32.3
			c12.3,11.7,23.9,22.8,35.9,34.3c0-17.9,0-35,0-52.3c-2.7,0-5.1,0-8.3,0c0,10.4,0,20.6,0,31.5C23.5,33,12,22.2,0,11z M91.2,63.9
			c14.4,0.1,26.1-11.1,26.5-25.4C118.1,24.7,106,12.2,92.1,12c-14.3-0.2-26.3,11.6-26.3,26.1C65.8,52.3,77.1,63.8,91.2,63.9z
			 M147.8,55.6c0-4.9,0-9.3,0-14c7.6,0,14.5,0,21.3,0c0-2.7,0-5.1,0-7.9c-7.4,0-14.5,0-21.6,0c0-4.7,0-8.9,0-13.7
			c8.4,0,16.4,0,24.5,0c0-2.7,0-4.8,0-7c-11.3,0-22.2,0-33,0c0,17,0,33.6,0,50.1c11.6,0,22.8,0,34,0c0-2.6,0-4.8,0-7.5
			C164.4,55.6,156,55.6,147.8,55.6z M277.9,13c-2.8,0-5.3,0-7.9,0c0,16.9,0,33.5,0,50.2c2.8,0,5.2,0,7.9,0
			C277.9,46.4,277.9,29.8,277.9,13z M164.4,1.3c-8.8-2.7-9.2,4.4-12.9,8.3C158.8,10.8,159.9,4.5,164.4,1.3z"/>
		<path d="M219.8,45.9c8.3-11.5,16.3-22.6,25.2-34.9c0,18.3,0,35.1,0,52.3c-2.8,0-5.5,0-8.7,0c0-8.5,0-16.9,0-25.3
			c-0.3-0.1-0.7-0.3-1-0.4c-5,7.2-10,14.4-15.4,22.2c-5.5-7.6-10.8-14.9-16-22.1c-0.3,0.1-0.6,0.1-1,0.2c0,8.4,0,16.8,0,25.5
			c-3.1,0-5.5,0-8.3,0c0-17,0-34,0-52C203.2,23,211.3,34.2,219.8,45.9z"/>
		<path d="M0,11c12,11.2,23.5,22,35.9,33.4c0-10.9,0-21.1,0-31.5c3.2,0,5.6,0,8.3,0c0,17.2,0,34.3,0,52.3
			c-12-11.5-23.6-22.6-35.9-34.3c0,11.1,0,21.5,0,32.3c-3,0-5.4,0-8.2,0C0,46.2,0,29,0,11z"/>
		<path d="M91.2,63.9c-14-0.1-25.4-11.7-25.4-25.8c0-14.4,12-26.3,26.3-26.1c13.9,0.2,25.9,12.7,25.6,26.5
			C117.3,52.8,105.6,64,91.2,63.9z M108.9,38.3c0-10-7.7-18-17.2-18.1c-9.6,0-17.5,8.1-17.5,17.9c0,9.9,7.8,17.6,17.6,17.6
			C101.6,55.7,108.9,48.2,108.9,38.3z"/>
		<path d="M147.8,55.6c8.3,0,16.6,0,25.2,0c0,2.7,0,4.9,0,7.5c-11.2,0-22.4,0-34,0c0-16.5,0-33.1,0-50.1c10.8,0,21.8,0,33,0
			c0,2.2,0,4.3,0,7c-8.1,0-16.1,0-24.5,0c0,4.8,0,9,0,13.7c7.1,0,14.1,0,21.6,0c0,2.8,0,5.2,0,7.9c-6.9,0-13.7,0-21.3,0
			C147.8,46.3,147.8,50.7,147.8,55.6z"/>
		<path d="M277.9,13c0,16.8,0,33.4,0,50.2c-2.7,0-5.1,0-7.9,0c0-16.7,0-33.3,0-50.2C272.5,13,275.1,13,277.9,13z"/>
		<path d="M164.4,1.3c-4.5,3.3-5.6,9.6-12.9,8.3C155.2,5.7,155.6-1.4,164.4,1.3z"/>
		<path class="st0" d="M108.9,38.3c0,9.9-7.4,17.4-17.1,17.4c-9.9,0-17.6-7.7-17.6-17.6c0-9.8,7.9-17.9,17.5-17.9
			C101.3,20.3,109,28.4,108.9,38.3z"/>
	</g>
</g>
</svg>
