<?xml version="1.0" encoding="utf-8"?>
<!-- Generator: Adobe Illustrator 22.1.0, SVG Export Plug-In . SVG Version: 6.00 Build 0)  -->
<svg version="1.1" id="Слой_1" xmlns="http://www.w3.org/2000/svg" xmlns:xlink="http://www.w3.org/1999/xlink" x="0px" y="0px"
	 viewBox="0 0 220.1 64.1" style="enable-background:new 0 0 220.1 64.1;" xml:space="preserve">
<style type="text/css">
	.st0{enable-background:new    ;}
</style>
<g class="st0">
	<path d="M0.2,63.4V13.2h9.9l20.5,33.5V13.2H40v50.2H29.8L9.6,30.6v32.7L0.2,63.4z"/>
	<path d="M48.6,38.5c0-5.1,0.8-9.4,2.3-12.9c1.1-2.6,2.7-4.9,4.7-6.9s4.1-3.5,6.5-4.5c3.1-1.3,6.7-2,10.8-2c7.4,0,13.3,2.3,17.7,6.9
		s6.7,11,6.7,19.1s-2.2,14.4-6.6,19c-4.4,4.6-10.3,6.9-17.7,6.9c-7.5,0-13.4-2.3-17.8-6.8C50.8,52.8,48.6,46.5,48.6,38.5z
		 M59.1,38.2c0,5.7,1.3,10,3.9,12.9c2.6,2.9,6,4.4,10,4.4s7.3-1.5,9.9-4.4s3.9-7.3,3.9-13.1c0-5.8-1.3-10-3.8-12.9
		c-2.5-2.8-5.9-4.2-10-4.2c-4.2,0-7.5,1.4-10.1,4.3C60.3,28.1,59.1,32.4,59.1,38.2z"/>
	<path d="M105.2,63.2V13l37.2-0.1v8.5h-27.1v11.1h25.2V41h-25.2v13.7h28v8.5H105.2z M118,10.2L122.7,0h10.8l-9.4,10.3L118,10.2z"/>
	<path d="M151.8,63.2V13H167l9.1,34.2l9-34.3h15.2v50.2h-9.4V23.6L181,63.1h-9.8l-9.9-39.5v39.5L151.8,63.2z"/>
	<path d="M210,63.1V12.9h10.1v50.2H210z"/>
</g>
</svg>
